<?xml version="1.0" encoding="UTF-8" standalone="no"?>
<svg xmlns="http://www.w3.org/2000/svg" width="2000" height="1333.3334" viewBox="0 0 2000 1333.3334" version="1.1">
  <rect width="2000" height="1333.3334" x="0" y="0" fill="#da251d" />
  
  <rect width="2000" height="666.66669" x="0" y="666.66669" fill="#3399ff" stroke-width="0.707107" />
  
  <polyline fill="#ffff00" points="11.47,14.85 20.71,8.15 9.29,8.15 18.53,14.85 15,4" transform="matrix(66.666667,0,0,66.666667,0,38.333351)" />
  
  <path fill="#ffff00" stroke-width="3.43033814" d="m 134.51862,235.81447 -21.10893,-0.0576 -6.53631,-8.87747 C 95.441165,224.0234 89.725055,215.16802 89.725055,200.31321 v -79.24135 c 0,-18.40236 9.067173,-27.603523 27.201485,-27.603523 18.17901,0 27.26851,9.201163 27.26851,27.603523 v 79.24135 c 0,14.52018 -5.40261,23.30661 -16.20783,26.35931 z m -9.28421,-114.74261 c 0,-5.8959 -2.74695,-8.86619 -8.24088,-8.91086 h -0.13412 c -5.44923,0 -8.17385,2.9703 -8.17385,8.91086 v 79.24135 c 0,5.94056 2.74695,8.91082 8.24084,8.91082 5.53859,0 8.30787,-2.97026 8.30787,-8.91082 z" />
  
  <path fill="#ffff00" stroke-width="3.43033814" d="m 207.21856,201.47041 q 0,27.60348 -27.26847,27.67047 -27.20152,0 -27.20152,-27.67047 V 95.545304 h 18.96064 V 201.47041 q 0,8.91081 8.24088,8.91081 8.30783,0 8.30783,-8.91081 V 95.545304 h 18.96064 z" />
  <path fill="#ffff00" stroke-width="3.43033814" d="m 235.87174,95.545304 12.93076,51.254086 12.93076,-51.254086 h 20.09965 l -22.98059,74.569646 -0.53599,1.60797 v 55.274 h -18.96067 v -55.274 l -0.60299,-1.60797 -22.98059,-74.569646 z" />
  <path fill="#ffff00" stroke-width="3.43033814" d="m 290.38643,95.545304 h 49.17712 v 18.692666 h -30.21648 v 31.6458 h 25.99555 v 18.75966 h -25.99555 v 43.66086 h 30.21648 v 18.69263 h -49.17712 z" />
  <path fill="#ffff00" stroke-width="3.43033814" d="M 402.58709,95.545304 V 114.23797 H 384.83242 V 226.99692 H 365.87174 V 114.23797 H 348.11706 V 95.545304 Z" />
  
  <path fill="#ffff00" stroke-width="3.43033814" d="M 497.72536,95.545304 V 114.23797 H 479.97068 V 226.99692 H 461.01004 V 114.23797 H 443.25536 V 95.545304 Z" />
  <path fill="#ffff00" stroke-width="3.43033814" d="m 506.55971,95.545304 h 18.96065 v 48.803486 h 16.54871 V 95.545304 h 18.96064 V 226.99692 h -18.96064 v -63.88847 h -16.54871 v 63.88847 h -18.96065 z" />
  <path fill="#ffff00" stroke-width="3.43033814" d="m 628.75597,180.36576 6.16391,46.63116 h -19.16166 l -3.68494,-27.87149 h -19.36265 l -3.75193,27.87149 h -19.09467 l 6.16391,-46.43014 13.39976,-85.021476 h 25.99551 z m -19.16166,0 -7.23585,-54.67101 -7.23589,54.67101 z" />
  <path fill="#ffff00" stroke-width="3.43033814" d="m 643.75417,95.545304 h 18.96064 L 680.6705,171.78992 V 95.545304 h 17.5537 V 226.99692 h -18.96068 l -17.28568,-73.83264 v 73.83264 h -18.22367 z" />
  
  <path fill="#ffff00" stroke-width="3.43033814" d="m 761.52851,201.47041 c 0,18.40232 -9.0895,27.62581 -27.26851,27.67047 -18.13434,0 -27.20148,-9.22349 -27.20148,-27.67047 v -80.39855 c 0,-18.40236 9.06714,-27.603523 27.20148,-27.603523 18.17901,0 27.26851,9.201163 27.26851,27.603523 v 1.75787 h -18.96064 v -1.75787 c 0,-5.8959 -2.74695,-8.86619 -8.24087,-8.91086 h -0.13413 c -5.44923,0 -8.17384,2.9703 -8.17384,8.91086 v 80.39855 c 0,5.94055 2.74694,8.91081 8.24087,8.91081 5.53855,0 8.30783,-2.97026 8.30783,-8.91081 v -30.81947 h -8.24084 v -18.75966 h 27.20149 z" />
  
  <g transform="matrix(1.3032901,0,0,1.3032901,-228.60102,-386.88644)">
    <path fill="#ffff00" stroke-width="2.7134757" d="m 412.31105,354.87006 h 11.41858 l 6.82199,10.62494 h -7.31461 l -5.22092,-6.0156 -5.58502,6.0156 h -6.95049 z" />
    <path fill="#ffff00" stroke-width="14.34602165" d="m 434.95585,343.87279 h 10.48647 l -9.05329,10.40765 h -6.32106 z" />
  </g>
  <g transform="matrix(1.3032901,0,0,1.3032901,-149.81217,-385.56612)">
    <path fill="#ffff00" stroke-width="11.24595547" d="m 564.15572,350.74765 h 6.53219 c 0.0597,2.90247 0.88851,5.21608 2.4069,6.38499 2.16341,1.66547 6.54093,1.97862 8.77094,-0.10758 1.90638,-1.78344 1.98809,-3.52698 2.4322,-6.27741 h 6.40497 c -0.32233,5.05381 -1.43878,7.55234 -3.76876,9.89238 -5.0411,5.06288 -13.35139,4.74084 -18.20802,1.24847 -3.25491,-2.34058 -5.03759,-6.25569 -4.57042,-11.14085 z" />
    <path fill="#ffff00" stroke-width="12.98832703" d="m 578.20065,342.35545 h 9.37353 l -8.09246,9.54381 h -5.6502 z" />
  </g>
</svg>